nColumns=19
nRows=39
DataType=double
version=3
OpenSimVersion=4.1
endheader
time	ground_force_1_vx	ground_force_1_vy	ground_force_1_vz	ground_force_1_px	ground_force_1_py	ground_force_1_pz	ground_force_1_mx	ground_force_1_my	ground_force_1_mz	ground_force_2_vx	ground_force_2_vy	ground_force_2_vz	ground_force_2_px	ground_force_2_py	ground_force_2_pz	ground_force_2_mx	ground_force_2_my	ground_force_2_mz
0.01	-1.75569	20.1519	2.04322	0.046583	0.006	-0.175134	0	0.327397	0	0	0	0	0.715687	0	-0.227515	0	0	0
0.02	-5.64947	39.824	2.19274	0.071877	0.006	-0.17704	0	0.287599	0	0	0	0	0.715687	0	-0.227515	0	0	0
0.03	-10.7598	64.9657	2.29688	0.086718	0.006	-0.177902	0	0.284036	0	0	0	0	0.715687	0	-0.227515	0	0	0
0.04	-17.2241	96.0032	2.32771	0.095749	0.006	-0.178247	0	0.29287	0	0	0	0	0.715687	0	-0.227515	0	0	0
0.05	-25.1367	133.096	2.2508	0.1022	0.006	-0.178371	0	0.307744	0	0	0	0	0.715687	0	-0.227515	0	0	0
0.06	-34.523	176.015	2.02509	0.107333	0.006	-0.178382	0	0.326243	0	0	0	0	0.715687	0	-0.227515	0	0	0
0.07	-45.3079	224.011	1.6038	0.11176	0.006	-0.178327	0	0.3472	0	0	0	0	0.715687	0	-0.227515	0	0	0
0.08	-57.2547	275.836	0.939874	0.115819	0.006	-0.178227	0	0.370132	0	0	0	0	0.715687	0	-0.227515	0	0	0
0.09	-69.9237	329.93	-0.0142009	0.119688	0.006	-0.178089	0	0.395121	0	0	0	0	0.715687	0	-0.227515	0	0	0
0.1	-82.7336	384.508	-1.31011	0.123452	0.006	-0.177912	0	0.42166	0	0	0	0	0.715687	0	-0.227515	0	0	0
0.11	-95.0483	437.602	-3.00207	0.127147	0.006	-0.177687	0	0.447068	0	0	0	0	0.715687	0	-0.227515	0	0	0
0.12	-106.233	487.211	-5.1436	0.130777	0.006	-0.177406	0	0.466882	0	0	0	0	0.715687	0	-0.227515	0	0	0
0.13	-115.713	531.554	-7.76972	0.134337	0.006	-0.17706	0	0.476805	0	0	0	0	0.715687	0	-0.227515	0	0	0
0.14	-123.056	569.284	-10.8593	0.137821	0.006	-0.176649	0	0.475318	0	0	0	0	0.715687	0	-0.227515	0	0	0
0.15	-128.033	599.613	-14.3105	0.141236	0.006	-0.176179	0	0.465298	0	0	0	0	0.715687	0	-0.227515	0	0	0
0.16	-130.603	622.307	-17.9463	0.144594	0.006	-0.175661	0	0.452476	0	0	0	0	0.715687	0	-0.227515	0	0	0
0.17	-130.862	637.548	-21.5387	0.147911	0.006	-0.175113	0	0.443295	0	0	0	0	0.715687	0	-0.227515	0	0	0
0.18	-129.003	645.778	-24.8473	0.151202	0.006	-0.174554	0	0.442748	0	0	0	0	0.715687	0	-0.227515	0	0	0
0.19	-125.289	647.605	-27.6677	0.154484	0.006	-0.173999	0	0.452107	0	0	0	0	0.715687	0	-0.227515	0	0	0
0.2	-120.034	643.73	-29.8603	0.157776	0.006	-0.173459	0	0.468644	0	0	0	0	0.715687	0	-0.227515	0	0	0
0.21	-113.574	634.897	-31.3585	0.161099	0.006	-0.172939	0	0.486919	0	0	0	0	0.715687	0	-0.227515	0	0	0
0.22	-106.246	621.877	-32.1665	0.164478	0.006	-0.17244	0	0.500013	0	0	0	0	0.715687	0	-0.227515	0	0	0
0.23	-98.3618	605.448	-32.346	0.167934	0.006	-0.171958	0	0.501093	0	0	0	0	0.715687	0	-0.227515	0	0	0
0.24	-90.1946	586.395	-31.9973	0.17149	0.006	-0.171484	0	0.4846	0	0	0	0	0.715687	0	-0.227515	0	0	0
0.25	-81.968	565.508	-31.2428	0.175164	0.006	-0.17101	0	0.446821	0	0	0	0	0.715687	0	-0.227515	0	0	0
0.26	-73.8602	543.573	-30.2096	0.178971	0.006	-0.170527	0	0.386108	0	0	0	0	0.715687	0	-0.227515	0	0	0
0.27	-66.0108	521.357	-29.0151	0.182923	0.006	-0.170029	0	0.302696	0	0	0	0	0.715687	0	-0.227515	0	0	0
0.28	-58.5262	499.584	-27.7573	0.187027	0.006	-0.169515	0	0.198339	0	0	0	0	0.715687	0	-0.227515	0	0	0
0.29	-51.4813	478.914	-26.5105	0.191278	0.006	-0.168988	0	0.075545	0	0	0	0	0.715687	0	-0.227515	0	0	0
0.3	-44.9203	459.926	-25.3268	0.195663	0.006	-0.168458	0	-0.063118	0	0	0	0	0.715687	0	-0.227515	0	0	0
0.31	-38.856	443.108	-24.2415	0.200156	0.006	-0.167937	0	-0.21528	0	0	0	0	0.715687	0	-0.227515	0	0	0
0.32	-33.2705	428.846	-23.2803	0.204716	0.006	-0.167443	0	-0.378793	0	0	0	0	0.715687	0	-0.227515	0	0	0
0.33	-28.1185	417.43	-22.4616	0.209289	0.006	-0.166993	0	-0.551812	0	0	0	0	0.715687	0	-0.227515	0	0	0
0.34	-23.3337	409.046	-21.7996	0.213812	0.006	-0.166604	0	-0.732583	0	0	0	0	0.715687	0	-0.227515	0	0	0
0.35	-18.8351	403.789	-21.306	0.218224	0.006	-0.16629	0	-0.919109	0	0	0	0	0.715687	0	-0.227515	0	0	0
0.36	-14.5338	401.664	-20.99	0.222467	0.006	-0.166061	0	-1.10885	0	0	0	0	0.715687	0	-0.227515	0	0	0
0.37	-10.3402	402.597	-20.8567	0.226501	0.006	-0.165922	0	-1.29865	0	0	0	0	0.715687	0	-0.227515	0	0	0
0.38	-6.16702	406.437	-20.9044	0.230301	0.006	-0.165872	0	-1.48492	0	0	0	0	0.715687	0	-0.227515	0	0	0
0.39	-1.93151	412.971	-21.1251	0.233865	0.006	-0.165905	0	-1.66383	0	0	0	0	0.715687	0	-0.227515	0	0	0
